{"title":"The Look of Love.2013.1080p.BluRay.x264 . NVEE","uid":8853144,"size":2002964716,"categoryP":"video","categoryS":"hd___movies","magnet":"?xt=urn:btih:772f73d2c8851172d1bf7a88fba78c396048f112&amp;dn=The+Look+of+Love.2013.1080p.BluRay.x264+.+NVEE&amp;tr=udp%3A%2F%2Ftracker.openbittorrent.com%3A80&amp;tr=udp%3A%2F%2Fopen.demonii.com%3A1337&amp;tr=udp%3A%2F%2Ftracker.coppersurfer.tk%3A6969&amp;tr=udp%3A%2F%2Fexodus.desync.com%3A6969","seeders":0,"leechers":3,"uploader":".NVEE","files":1,"time":1377583068,"description":"FULL_INFOs\n\n\n99.99% --- SYNCED GUARANTEED \n\n&quot;Totally scrutinized / analyzed to be a verified torrent.&quot;\n\nSource : BluRay ~ 1080p\n\nMy Media Player of Choice &quot;VLC Media Player&quot;\n\nSpoken Language : English Only\n\nAudio : 6 ~ Channels Only\n\n\n &lt;a href=&quot;\nhttp://www.imdb.com/title/tt1951216/&quot; rel=&quot;nofollow&quot; target=&quot;_NEW&quot;&gt;\nhttp://www.imdb.com/title/tt1951216/&lt;/a&gt;\n\n\n\n\nSubs Info : MULTI_SUBS\n\n &lt;a href=&quot;\nhttp://www.subtitleseeker.com/1951216/The+Look+of+Love/Subtitles/&quot; rel=&quot;nofollow&quot; target=&quot;_NEW&quot;&gt;\nhttp://www.subtitleseeker.com/1951216/The+Look+of+Love/Subtitles/&lt;/a&gt;\n\n25 Subtitles In 4 Languages Use Link Provided \n &lt;a href=&quot;\nhttp://www.subtitleseeker.com/1951216/The+Look+of+Love/Subtitles/&quot; rel=&quot;nofollow&quot; target=&quot;_NEW&quot;&gt;\nhttp://www.subtitleseeker.com/1951216/The+Look+of+Love/Subtitles/&lt;/a&gt;\n\n25 Subtitles In 4 Languages Only @ SubtitleSeeker\n &lt;a href=&quot;\nhttp://www.subtitleseeker.com/1951216/The+Look+of+Love/Subtitles/&quot; rel=&quot;nofollow&quot; target=&quot;_NEW&quot;&gt;\nhttp://www.subtitleseeker.com/1951216/The+Look+of+Love/Subtitles/&lt;/a&gt;\n\nAll .srt subs can be turned On/Off\n\n\n\n &lt;a href=&quot;\nhttp://www.imdb.com/title/tt1951216/&quot; rel=&quot;nofollow&quot; target=&quot;_NEW&quot;&gt;\nhttp://www.imdb.com/title/tt1951216/&lt;/a&gt;\n\n\n\n\n--------------------------------------------------------------------------------\n\n\n\nGeneral\n\nComplete name : The Look of Love.2013.1080p.BluRay.x264 . NVEE.mp4\nFormat : MPEG-4\nFormat profile : Base Media\nCodec ID : isom\nFile size : 1.87 GiB\nDuration : 1h 41mn\nOverall bit rate : 2 643 Kbps\nEncoded date : UTC 2013-08-27 02:48:12\nTagged date : UTC 2013-08-27 02:48:12\n\nVideo\n\nID : 1\nFormat : AVC\nFormat/Info : Advanced Video Codec\nFormat profile : &lt;a class=&quot;__cf_email__&quot; href=&quot;/cdn-cgi/l/email-protection&quot; data-cfemail=&quot;ce86a7a9a68e82fae0fe&quot;&gt;[email&amp;#160;protected]&lt;/a&gt;&lt;script cf-hash='f9e31' type=&quot;text/javascript&quot;&gt;\n/* &lt;![CDATA[ */!function(){try{var t=&quot;currentScript&quot;in document?document.currentScript:function(){for(var t=document.getElementsByTagName(&quot;script&quot;),e=t.length;e--;)if(t[e].getAttribute(&quot;cf-hash&quot;))return t[e]}();if(t&amp;&amp;t.previousSibling){var e,r,n,i,c=t.previousSibling,a=c.getAttribute(&quot;data-cfemail&quot;);if(a){for(e=&quot;&quot;,r=parseInt(a.substr(0,2),16),n=2;a.length-n;n+=2)i=parseInt(a.substr(n,2),16)^r,e+=String.fromCharCode(i);e=document.createTextNode(e),c.parentNode.replaceChild(e,c)}}}catch(u){}}();/* ]]&gt; */&lt;/script&gt;\nFormat settings, CABAC : Yes\nFormat settings, ReFrames : 4 frames\nCodec ID : avc1\nCodec ID/Info : Advanced Video Coding\nDuration : 1h 41mn\nBit rate : 2 130 Kbps\nMaximum bit rate : 10.4 Mbps\nWidth : 1 920 pixels\nHeight : 816 pixels\nDisplay aspect ratio : 2.35:1\nFrame rate mode : Constant\nFrame rate : 24.000 fps\nColor space : YUV\nChroma subsampling : 4:2:0\nBit depth : 8 bits\nScan type : Progressive\nBits/(Pixel*Frame) : 0.057\nStream size : 1.50 GiB (81%)\nTitle : 2013.1080p.BluRay.x264 .264#trackID=1:fps=&lt;a class=&quot;__cf_email__&quot; href=&quot;/cdn-cgi/l/email-protection&quot; data-cfemail=&quot;172523575047565427392239263a5352413a65726123252f24&quot;&gt;[email&amp;#160;protected]&lt;/a&gt;&lt;script cf-hash='f9e31' type=&quot;text/javascript&quot;&gt;\n/* &lt;![CDATA[ */!function(){try{var t=&quot;currentScript&quot;in document?document.currentScript:function(){for(var t=document.getElementsByTagName(&quot;script&quot;),e=t.length;e--;)if(t[e].getAttribute(&quot;cf-hash&quot;))return t[e]}();if(t&amp;&amp;t.previousSibling){var e,r,n,i,c=t.previousSibling,a=c.getAttribute(&quot;data-cfemail&quot;);if(a){for(e=&quot;&quot;,r=parseInt(a.substr(0,2),16),n=2;a.length-n;n+=2)i=parseInt(a.substr(n,2),16)^r,e+=String.fromCharCode(i);e=document.createTextNode(e),c.parentNode.replaceChild(e,c)}}}catch(u){}}();/* ]]&gt; */&lt;/script&gt;\nWriting library : x264 core 133 r2334 a3ac64b\nEncoded date : UTC 2013-08-27 02:48:12\nTagged date : UTC 2013-08-27 02:58:52\n\nAudio\n\nID : 2\nFormat : AC-3\nFormat/Info : Audio Coding 3\nMode extension : CM (complete main)\nFormat settings, Endianness : Big\nCodec ID : ac-3\nDuration : 1h 41mn\nBit rate mode : Constant\nBit rate : 512 Kbps\nChannel(s) : 6 channels\nChannel positions : Front: L C R, Side: L R, LFE\nSampling rate : 48.0 KHz\nBit depth : 16 bits\nCompression mode : Lossy\nStream size : 370 MiB (19%)\nTitle : 2013.1080p.BluRay.x264 . NVEE - [0]_audio.ac3#trackID=&lt;a class=&quot;__cf_email__&quot; href=&quot;/cdn-cgi/l/email-protection&quot; data-cfemail=&quot;2716676077666417091209160a6362710a55425113151f14&quot;&gt;[email&amp;#160;protected]&lt;/a&gt;&lt;script cf-hash='f9e31' type=&quot;text/javascript&quot;&gt;\n/* &lt;![CDATA[ */!function(){try{var t=&quot;currentScript&quot;in document?document.currentScript:function(){for(var t=document.getElementsByTagName(&quot;script&quot;),e=t.length;e--;)if(t[e].getAttribute(&quot;cf-hash&quot;))return t[e]}();if(t&amp;&amp;t.previousSibling){var e,r,n,i,c=t.previousSibling,a=c.getAttribute(&quot;data-cfemail&quot;);if(a){for(e=&quot;&quot;,r=parseInt(a.substr(0,2),16),n=2;a.length-n;n+=2)i=parseInt(a.substr(n,2),16)^r,e+=String.fromCharCode(i);e=document.createTextNode(e),c.parentNode.replaceChild(e,c)}}}catch(u){}}();/* ]]&gt; */&lt;/script&gt;\nEncoded date : UTC 2013-08-27 02:57:03\nTagged date : UTC 2013-08-27 02:58:52\n\n\nSynopsis\n\nThe films opens in London in 1992, Paul Raymond (Steve Coogan) has returned to his flat after attending the funeral of his daughter Debbie (Imogen Poots). He puts a videotape of a TV programme they took part in and starts reflecting on their life.\nthe film then flashbacks to the late 1950s. Raymond is an impresario on the seaside variety show circuit where he is making a name for himself by adding semi-nude women to his variety acts. After an act in which a lion attacks some dancers his wife Jean (Anna Friel) takes part in the show. The Daily Sketch claims that she performed nude and sued them unsuccessfully. Despite this setback the ensuing publicity allows Raymond to launch his strip club the Raymond Revue Bar. The success of his club allows him to expand his property empire and also indulge in a playboy lifestyle which his wife tolerates.\nIn the early 1970s he moves into theatrical revues where he meets actress Amber St. George (Tamsin Egerton). Raymond moves in with her and his marriage to Jean ends.\nRaymond is then approached by Tony Power to fund a men's magazine, Men Only. The magazine is a huge success, in part thanks to roving sex reporter Fiona Richmond, the pseudonym of St.George. Raymond continues to enjoy a hedonistic, coke-fuelled lifestyle. This becomes too much for St.George and their relationship ends.\nInto this mix his daughter Debbie is introduced. Initially Raymond tries to make her a star in his theatrical ventures, but she lacks talent and the show is cancelled. To boost her self-confidence, Tony Power introduces her to cocaine and this leads to a downward spiral of substance abuse, in part aided by her father. She marries musician Jonathan Hodge, and has his child, sniffing a line of coke in the delivery room. She dies in 1992 of a heroin overdose.\nThe film ends with Raymond returning home with his grand-daughter telling them that the property he owns will go to them.\n\nEnjoy !","torrent":{"xt":"urn:btih:772f73d2c8851172d1bf7a88fba78c396048f112","amp;dn":"The+Look+of+Love.2013.1080p.BluRay.x264+.+NVEE","amp;tr":["udp%3A%2F%2Ftracker.openbittorrent.com%3A80","udp%3A%2F%2Fopen.demonii.com%3A1337","udp%3A%2F%2Ftracker.coppersurfer.tk%3A6969","udp%3A%2F%2Fexodus.desync.com%3A6969"],"infoHash":"772f73d2c8851172d1bf7a88fba78c396048f112","infoHashBuffer":{"type":"Buffer","data":[119,47,115,210,200,133,17,114,209,191,122,136,251,167,140,57,96,72,241,18]},"announce":[],"urlList":[]}}